<mxfile host="app.diagrams.net" modified="2023-03-20T15:30:39.960Z" agent="5.0 (Windows NT 10.0; Win64; x64) AppleWebKit/537.36 (KHTML, like Gecko) Chrome/111.0.0.0 Safari/537.36" etag="Ydaxm-FCuAtHm2CTLd-c" version="21.0.8" type="github">
  <diagram name="Page-1" id="c7558073-3199-34d8-9f00-42111426c3f3">
    <mxGraphModel dx="4544" dy="1212" grid="1" gridSize="10" guides="1" tooltips="1" connect="1" arrows="1" fold="1" page="1" pageScale="1" pageWidth="1169" pageHeight="827" background="none" math="0" shadow="0">
      <root>
        <mxCell id="0" />
        <mxCell id="1" parent="0" />
        <mxCell id="WfpwPizEQ_CFzZAdkEQ1-200" value="&lt;h1&gt;&lt;font style=&quot;font-size: 32px;&quot;&gt;Google OAUTH 20 REVIEW by Santiago&lt;/font&gt;&lt;/h1&gt;" style="text;html=1;strokeColor=none;fillColor=none;spacing=5;spacingTop=-20;whiteSpace=wrap;overflow=hidden;rounded=0;" vertex="1" parent="1">
          <mxGeometry x="-2047" y="10" width="620.5" height="43" as="geometry" />
        </mxCell>
        <mxCell id="WfpwPizEQ_CFzZAdkEQ1-201" value="&lt;b&gt;REACT&lt;/b&gt;" style="whiteSpace=wrap;html=1;aspect=fixed;fillColor=#dae8fc;strokeColor=#6c8ebf;" vertex="1" parent="1">
          <mxGeometry x="-2316" y="90" width="90" height="90" as="geometry" />
        </mxCell>
        <mxCell id="WfpwPizEQ_CFzZAdkEQ1-202" value="" style="endArrow=classic;html=1;rounded=0;exitX=1;exitY=0.5;exitDx=0;exitDy=0;entryX=0;entryY=0.5;entryDx=0;entryDy=0;" edge="1" parent="1" source="WfpwPizEQ_CFzZAdkEQ1-201" target="WfpwPizEQ_CFzZAdkEQ1-203">
          <mxGeometry width="50" height="50" relative="1" as="geometry">
            <mxPoint x="-1840" y="197" as="sourcePoint" />
            <mxPoint x="-1750" y="152" as="targetPoint" />
          </mxGeometry>
        </mxCell>
        <mxCell id="WfpwPizEQ_CFzZAdkEQ1-203" value="&lt;b&gt;SERVER&lt;/b&gt;" style="whiteSpace=wrap;html=1;aspect=fixed;fillColor=#fff2cc;strokeColor=#d6b656;" vertex="1" parent="1">
          <mxGeometry x="-1895" y="90" width="90" height="90" as="geometry" />
        </mxCell>
        <mxCell id="WfpwPizEQ_CFzZAdkEQ1-204" value="&lt;b&gt;GOOGLE&lt;/b&gt;" style="whiteSpace=wrap;html=1;aspect=fixed;fillColor=#d5e8d4;strokeColor=#82b366;" vertex="1" parent="1">
          <mxGeometry x="-1480" y="90" width="90" height="90" as="geometry" />
        </mxCell>
        <mxCell id="WfpwPizEQ_CFzZAdkEQ1-205" value="" style="endArrow=classic;html=1;rounded=0;exitX=1;exitY=0.5;exitDx=0;exitDy=0;entryX=0;entryY=0.5;entryDx=0;entryDy=0;" edge="1" parent="1" source="WfpwPizEQ_CFzZAdkEQ1-203" target="WfpwPizEQ_CFzZAdkEQ1-204">
          <mxGeometry width="50" height="50" relative="1" as="geometry">
            <mxPoint x="-1560" y="347" as="sourcePoint" />
            <mxPoint x="-1510" y="297" as="targetPoint" />
          </mxGeometry>
        </mxCell>
        <mxCell id="WfpwPizEQ_CFzZAdkEQ1-206" value="Verify your google account" style="label;whiteSpace=wrap;html=1;image=img/clipart/Gear_128x128.png;fillColor=#d5e8d4;strokeColor=#82b366;" vertex="1" parent="1">
          <mxGeometry x="-1340" y="105" width="140" height="60" as="geometry" />
        </mxCell>
        <mxCell id="WfpwPizEQ_CFzZAdkEQ1-207" value="" style="endArrow=classic;html=1;rounded=0;entryX=0;entryY=0.5;entryDx=0;entryDy=0;" edge="1" parent="1" source="WfpwPizEQ_CFzZAdkEQ1-204" target="WfpwPizEQ_CFzZAdkEQ1-206">
          <mxGeometry width="50" height="50" relative="1" as="geometry">
            <mxPoint x="-1795" y="145" as="sourcePoint" />
            <mxPoint x="-1595" y="145" as="targetPoint" />
          </mxGeometry>
        </mxCell>
        <mxCell id="WfpwPizEQ_CFzZAdkEQ1-208" value="" style="endArrow=classic;html=1;rounded=0;exitX=0.5;exitY=1;exitDx=0;exitDy=0;entryX=0.5;entryY=0;entryDx=0;entryDy=0;" edge="1" parent="1" source="WfpwPizEQ_CFzZAdkEQ1-206" target="WfpwPizEQ_CFzZAdkEQ1-211">
          <mxGeometry width="50" height="50" relative="1" as="geometry">
            <mxPoint x="-1515" y="347" as="sourcePoint" />
            <mxPoint x="-1415" y="387" as="targetPoint" />
          </mxGeometry>
        </mxCell>
        <mxCell id="WfpwPizEQ_CFzZAdkEQ1-209" value="" style="endArrow=classic;html=1;rounded=0;exitX=0;exitY=0.5;exitDx=0;exitDy=0;entryX=1;entryY=0.5;entryDx=0;entryDy=0;" edge="1" parent="1" source="WfpwPizEQ_CFzZAdkEQ1-218" target="WfpwPizEQ_CFzZAdkEQ1-212">
          <mxGeometry width="50" height="50" relative="1" as="geometry">
            <mxPoint x="-1450" y="447" as="sourcePoint" />
            <mxPoint x="-1660" y="447" as="targetPoint" />
          </mxGeometry>
        </mxCell>
        <mxCell id="WfpwPizEQ_CFzZAdkEQ1-210" value="/api/auth/google" style="rounded=1;whiteSpace=wrap;html=1;fillColor=#fff2cc;strokeColor=#d6b656;" vertex="1" parent="1">
          <mxGeometry x="-1900" y="70" width="100" height="20" as="geometry" />
        </mxCell>
        <mxCell id="WfpwPizEQ_CFzZAdkEQ1-211" value="&lt;b&gt;GOOGLE&lt;/b&gt;" style="whiteSpace=wrap;html=1;aspect=fixed;fillColor=#d5e8d4;strokeColor=#82b366;" vertex="1" parent="1">
          <mxGeometry x="-1315" y="260.5" width="90" height="90" as="geometry" />
        </mxCell>
        <mxCell id="WfpwPizEQ_CFzZAdkEQ1-212" value="&lt;b&gt;SERVER&lt;/b&gt;" style="whiteSpace=wrap;html=1;aspect=fixed;fillColor=#fff2cc;strokeColor=#d6b656;" vertex="1" parent="1">
          <mxGeometry x="-1900" y="260.5" width="90" height="90" as="geometry" />
        </mxCell>
        <mxCell id="WfpwPizEQ_CFzZAdkEQ1-213" value="" style="edgeStyle=orthogonalEdgeStyle;rounded=0;orthogonalLoop=1;jettySize=auto;html=1;" edge="1" parent="1" source="WfpwPizEQ_CFzZAdkEQ1-214" target="WfpwPizEQ_CFzZAdkEQ1-225">
          <mxGeometry relative="1" as="geometry" />
        </mxCell>
        <mxCell id="WfpwPizEQ_CFzZAdkEQ1-214" value="&lt;b&gt;REACT&lt;/b&gt;" style="whiteSpace=wrap;html=1;aspect=fixed;fillColor=#dae8fc;strokeColor=#6c8ebf;" vertex="1" parent="1">
          <mxGeometry x="-2316" y="260" width="90" height="90" as="geometry" />
        </mxCell>
        <mxCell id="WfpwPizEQ_CFzZAdkEQ1-215" value="" style="edgeStyle=none;orthogonalLoop=1;jettySize=auto;html=1;rounded=0;exitX=0;exitY=0.5;exitDx=0;exitDy=0;" edge="1" parent="1" source="WfpwPizEQ_CFzZAdkEQ1-212" target="WfpwPizEQ_CFzZAdkEQ1-221">
          <mxGeometry width="100" relative="1" as="geometry">
            <mxPoint x="-2000" y="447" as="sourcePoint" />
            <mxPoint x="-1900" y="447" as="targetPoint" />
            <Array as="points" />
          </mxGeometry>
        </mxCell>
        <mxCell id="WfpwPizEQ_CFzZAdkEQ1-216" value="/api/auth/google/callback" style="rounded=1;whiteSpace=wrap;html=1;fillColor=#fff2cc;strokeColor=#d6b656;" vertex="1" parent="1">
          <mxGeometry x="-1920" y="240" width="140" height="20" as="geometry" />
        </mxCell>
        <mxCell id="WfpwPizEQ_CFzZAdkEQ1-217" value="" style="endArrow=classic;html=1;rounded=0;entryX=1;entryY=0.5;entryDx=0;entryDy=0;" edge="1" parent="1" target="WfpwPizEQ_CFzZAdkEQ1-218" source="WfpwPizEQ_CFzZAdkEQ1-211">
          <mxGeometry width="50" height="50" relative="1" as="geometry">
            <mxPoint x="-1490" y="305.5" as="sourcePoint" />
            <mxPoint x="-1770" y="305.5" as="targetPoint" />
          </mxGeometry>
        </mxCell>
        <mxCell id="WfpwPizEQ_CFzZAdkEQ1-218" value="" style="dashed=0;outlineConnect=0;html=1;align=center;labelPosition=center;verticalLabelPosition=bottom;verticalAlign=top;shape=mxgraph.weblogos.json;fillColor=#008a00;fontColor=#ffffff;strokeColor=#005700;" vertex="1" parent="1">
          <mxGeometry x="-1590" y="260" width="83.11345646437995" height="90" as="geometry" />
        </mxCell>
        <mxCell id="WfpwPizEQ_CFzZAdkEQ1-219" value="" style="edgeStyle=none;orthogonalLoop=1;jettySize=auto;html=1;rounded=0;entryX=1;entryY=0.5;entryDx=0;entryDy=0;" edge="1" parent="1" source="WfpwPizEQ_CFzZAdkEQ1-221" target="WfpwPizEQ_CFzZAdkEQ1-214">
          <mxGeometry width="100" relative="1" as="geometry">
            <mxPoint x="-2060" y="527" as="sourcePoint" />
            <mxPoint x="-2110" y="446.57000000000005" as="targetPoint" />
            <Array as="points" />
          </mxGeometry>
        </mxCell>
        <mxCell id="WfpwPizEQ_CFzZAdkEQ1-220" value="COOKIE" style="rounded=1;whiteSpace=wrap;html=1;" vertex="1" parent="1">
          <mxGeometry x="-2081" y="240" width="60" height="20" as="geometry" />
        </mxCell>
        <mxCell id="WfpwPizEQ_CFzZAdkEQ1-221" value="" style="sketch=0;pointerEvents=1;shadow=0;dashed=0;html=1;strokeColor=#6c8ebf;fillColor=#dae8fc;aspect=fixed;labelPosition=center;verticalLabelPosition=bottom;verticalAlign=top;align=center;outlineConnect=0;shape=mxgraph.vvd.web_browser;" vertex="1" parent="1">
          <mxGeometry x="-2111" y="260.5" width="126.06" height="89.5" as="geometry" />
        </mxCell>
        <mxCell id="WfpwPizEQ_CFzZAdkEQ1-222" value="" style="shape=image;html=1;verticalAlign=top;verticalLabelPosition=bottom;labelBackgroundColor=#ffffff;imageAspect=0;aspect=fixed;image=https://cdn1.iconfinder.com/data/icons/cartoon-snack/128/cookie-128.png;imageBackground=none;" vertex="1" parent="1">
          <mxGeometry x="-2140" y="310" width="59" height="59" as="geometry" />
        </mxCell>
        <mxCell id="WfpwPizEQ_CFzZAdkEQ1-223" value="" style="edgeStyle=orthogonalEdgeStyle;rounded=0;orthogonalLoop=1;jettySize=auto;html=1;entryX=-0.027;entryY=0.562;entryDx=0;entryDy=0;entryPerimeter=0;" edge="1" parent="1" source="WfpwPizEQ_CFzZAdkEQ1-225" target="WfpwPizEQ_CFzZAdkEQ1-230">
          <mxGeometry relative="1" as="geometry">
            <mxPoint x="-2050" y="735" as="targetPoint" />
          </mxGeometry>
        </mxCell>
        <mxCell id="WfpwPizEQ_CFzZAdkEQ1-225" value="&lt;b&gt;useEffect()&lt;br&gt;COOKIE ?&lt;/b&gt;" style="rhombus;whiteSpace=wrap;html=1;fillColor=#dae8fc;strokeColor=#6c8ebf;" vertex="1" parent="1">
          <mxGeometry x="-2322.25" y="463" width="102.5" height="100" as="geometry" />
        </mxCell>
        <mxCell id="WfpwPizEQ_CFzZAdkEQ1-228" value="&lt;b&gt;YES&lt;/b&gt;" style="text;html=1;align=center;verticalAlign=middle;resizable=0;points=[];autosize=1;strokeColor=none;fillColor=none;" vertex="1" parent="1">
          <mxGeometry x="-2240" y="470" width="50" height="30" as="geometry" />
        </mxCell>
        <mxCell id="WfpwPizEQ_CFzZAdkEQ1-229" value="" style="edgeStyle=orthogonalEdgeStyle;rounded=0;orthogonalLoop=1;jettySize=auto;html=1;" edge="1" parent="1" source="WfpwPizEQ_CFzZAdkEQ1-230" target="WfpwPizEQ_CFzZAdkEQ1-232">
          <mxGeometry relative="1" as="geometry" />
        </mxCell>
        <mxCell id="WfpwPizEQ_CFzZAdkEQ1-230" value="&lt;b&gt;SERVER&lt;/b&gt;" style="whiteSpace=wrap;html=1;aspect=fixed;fillColor=#fff2cc;strokeColor=#d6b656;" vertex="1" parent="1">
          <mxGeometry x="-1889.5" y="463" width="90" height="90" as="geometry" />
        </mxCell>
        <mxCell id="WfpwPizEQ_CFzZAdkEQ1-231" value="/api/auth/loginWithToken" style="rounded=1;whiteSpace=wrap;html=1;fillColor=#fff2cc;strokeColor=#d6b656;" vertex="1" parent="1">
          <mxGeometry x="-1914.5" y="440" width="140" height="20" as="geometry" />
        </mxCell>
        <mxCell id="WfpwPizEQ_CFzZAdkEQ1-232" value="verify Token" style="label;whiteSpace=wrap;html=1;image=img/clipart/Gear_128x128.png;fillColor=#fff2cc;strokeColor=#d6b656;" vertex="1" parent="1">
          <mxGeometry x="-1690" y="478" width="140" height="60" as="geometry" />
        </mxCell>
        <mxCell id="WfpwPizEQ_CFzZAdkEQ1-233" value="" style="edgeStyle=orthogonalEdgeStyle;rounded=0;orthogonalLoop=1;jettySize=auto;html=1;exitX=0.5;exitY=1;exitDx=0;exitDy=0;" edge="1" parent="1" source="WfpwPizEQ_CFzZAdkEQ1-232" target="WfpwPizEQ_CFzZAdkEQ1-235">
          <mxGeometry relative="1" as="geometry" />
        </mxCell>
        <mxCell id="WfpwPizEQ_CFzZAdkEQ1-234" value="" style="edgeStyle=orthogonalEdgeStyle;rounded=0;orthogonalLoop=1;jettySize=auto;html=1;" edge="1" parent="1" source="WfpwPizEQ_CFzZAdkEQ1-235" target="WfpwPizEQ_CFzZAdkEQ1-238">
          <mxGeometry relative="1" as="geometry" />
        </mxCell>
        <mxCell id="WfpwPizEQ_CFzZAdkEQ1-235" value="&lt;b&gt;SERVER&lt;/b&gt;" style="whiteSpace=wrap;html=1;aspect=fixed;fillColor=#fff2cc;strokeColor=#d6b656;" vertex="1" parent="1">
          <mxGeometry x="-1665" y="699" width="90" height="90" as="geometry" />
        </mxCell>
        <mxCell id="WfpwPizEQ_CFzZAdkEQ1-236" value="&lt;b&gt;REACT&lt;br&gt;&lt;/b&gt;" style="whiteSpace=wrap;html=1;aspect=fixed;fillColor=#dae8fc;strokeColor=#6c8ebf;" vertex="1" parent="1">
          <mxGeometry x="-2226" y="699" width="90" height="90" as="geometry" />
        </mxCell>
        <mxCell id="WfpwPizEQ_CFzZAdkEQ1-237" value="" style="edgeStyle=orthogonalEdgeStyle;rounded=0;orthogonalLoop=1;jettySize=auto;html=1;" edge="1" parent="1" source="WfpwPizEQ_CFzZAdkEQ1-238" target="WfpwPizEQ_CFzZAdkEQ1-236">
          <mxGeometry relative="1" as="geometry" />
        </mxCell>
        <mxCell id="WfpwPizEQ_CFzZAdkEQ1-238" value="" style="dashed=0;outlineConnect=0;html=1;align=center;labelPosition=center;verticalLabelPosition=bottom;verticalAlign=top;shape=mxgraph.weblogos.json" vertex="1" parent="1">
          <mxGeometry x="-2033.5299999999997" y="699" width="83.11345646437995" height="90" as="geometry" />
        </mxCell>
        <mxCell id="WfpwPizEQ_CFzZAdkEQ1-239" value="" style="image;aspect=fixed;html=1;points=[];align=center;fontSize=12;image=img/lib/azure2/management_governance/User_Privacy.svg;" vertex="1" parent="1">
          <mxGeometry x="-2313.87" y="689" width="94.12" height="100" as="geometry" />
        </mxCell>
        <mxCell id="WfpwPizEQ_CFzZAdkEQ1-240" value="&lt;b&gt;USER&lt;/b&gt;" style="text;html=1;align=center;verticalAlign=middle;resizable=0;points=[];autosize=1;strokeColor=#6c8ebf;fillColor=#dae8fc;" vertex="1" parent="1">
          <mxGeometry x="-2206.5" y="680" width="51" height="26" as="geometry" />
        </mxCell>
        <mxCell id="WfpwPizEQ_CFzZAdkEQ1-241" value="" style="shape=actor;whiteSpace=wrap;html=1;fillColor=#d5e8d4;strokeColor=#82b366;" vertex="1" parent="1">
          <mxGeometry x="-1330" y="240" width="41" height="50" as="geometry" />
        </mxCell>
        <mxCell id="WfpwPizEQ_CFzZAdkEQ1-242" value="" style="shape=actor;whiteSpace=wrap;html=1;fillColor=#fff2cc;strokeColor=#d6b656;" vertex="1" parent="1">
          <mxGeometry x="-1690" y="668" width="41" height="50" as="geometry" />
        </mxCell>
      </root>
    </mxGraphModel>
  </diagram>
</mxfile>
